<?xml version="1.0" encoding="utf-8"?>
<svg id="svg6" version="1.1" viewBox="0 0 512 512" xmlns="http://www.w3.org/2000/svg">
  <path style="fill: rgb(51, 51, 51);" d="M 112.398 97.771 C 102.712 97.771 94.914 105.569 94.914 115.255 L 94.914 329.038 C 94.914 338.724 102.712 346.522 112.398 346.522 L 401.635 346.522 C 411.321 346.522 419.119 338.724 419.119 329.038 L 419.119 115.255 C 419.119 105.569 411.321 97.771 401.635 97.771 L 112.398 97.771 Z M 300.532 114.166 C 300.559 114.166 300.586 114.166 300.612 114.166 C 308.661 114.166 315.185 120.69 315.185 128.738 C 315.185 136.787 308.661 143.311 300.612 143.311 C 292.564 143.311 286.04 136.787 286.04 128.738 C 286.04 120.721 292.515 114.21 300.532 114.166 Z M 341.46 114.166 C 341.487 114.166 341.514 114.166 341.54 114.166 C 349.589 114.166 356.113 120.69 356.113 128.738 C 356.113 136.787 349.589 143.311 341.54 143.311 C 333.492 143.311 326.968 136.787 326.968 128.738 C 326.968 120.721 333.443 114.21 341.46 114.166 Z M 381.534 114.166 C 381.561 114.166 381.588 114.166 381.615 114.166 C 389.663 114.166 396.187 120.69 396.187 128.738 C 396.187 136.787 389.663 143.311 381.615 143.311 C 373.566 143.311 367.042 136.787 367.042 128.738 C 367.042 120.721 373.517 114.21 381.534 114.166 Z M 131.862 161.365 L 385.962 161.365 C 392.127 161.365 397.09 166.329 397.09 172.494 L 397.09 309.248 C 397.09 315.413 392.127 320.376 385.962 320.376 L 131.862 320.376 C 125.697 320.376 120.733 315.413 120.733 309.248 L 120.733 172.494 C 120.733 166.329 125.697 161.365 131.862 161.365 Z M 134.766 177.592 L 134.766 203.727 L 180.123 223.586 L 180.123 223.936 L 134.766 242.127 L 134.766 268.175 L 218.147 230.783 L 218.147 216.563 L 134.766 177.592 Z M 220.394 255.137 L 220.394 279.57 L 296.276 279.57 L 296.276 255.137 L 220.394 255.137 Z" id="path2"/>
</svg>