<svg height="512" viewBox="0 0 128 128" width="512" xmlns="http://www.w3.org/2000/svg"><g><circle cx="64" cy="64" fill="#ebf7fe" r="56.697"/><g><path d="m96.906 52.1v34.754a3.975 3.975 0 0 1 -.029.482v.01l-.3.944a4.84 4.84 0 0 1 -3.834 3.323c-.115.01-.241.029-.366.039-.048 0-.1.009-.144.009a.713.713 0 0 1 -.145.01h-55.851a4.815 4.815 0 0 1 -4.788-4.306 4.473 4.473 0 0 1 -.029-.511v-46.672c0-2.659 2.158-3.853 4.817-3.853h14.1a4.8 4.8 0 0 1 3.834 1.907l6.878 7.138a4.8 4.8 0 0 0 3.834 1.908h27.2a4.819 4.819 0 0 1 4.823 4.818z" fill="#fbbe2c"/><path d="m105.277 60.5-8.4 26.838v.01l-.3.944a4.84 4.84 0 0 1 -3.834 3.323c-.115.01-.241.029-.366.039-.048 0-.1.009-.144.009a2.107 2.107 0 0 1 -.251.01h-55.745a4.815 4.815 0 0 1 -4.788-4.306 3.865 3.865 0 0 1 .154-.7l8.697-27.797a4.81 4.81 0 0 1 4.6-3.37h56.7a3.851 3.851 0 0 1 3.677 5z" fill="#fed843"/></g></g><g><path d="m121.915 56.086a1.75 1.75 0 1 0 -3.469.469 55.594 55.594 0 0 1 .5 7.445 54.816 54.816 0 0 1 -7.577 27.851 1.75 1.75 0 0 0 3.014 1.779 58.319 58.319 0 0 0 8.067-29.63 59.267 59.267 0 0 0 -.535-7.914z"/><path d="m83.683 115.316a54.954 54.954 0 1 1 32.3-69.158 1.75 1.75 0 1 0 3.31-1.136 58.433 58.433 0 1 0 -34.358 73.562 1.75 1.75 0 1 0 -1.254-3.268z"/><path d="m105.08 100.479a54.618 54.618 0 0 1 -11.841 10.049 1.75 1.75 0 1 0 1.862 2.963 58.131 58.131 0 0 0 12.599-10.691 1.75 1.75 0 0 0 -2.621-2.321z"/><path d="m97.561 90.294a8.74 8.74 0 0 0 1.012-2.519l8.374-26.754a5.6 5.6 0 0 0 -5.35-7.272h-2.937v-1.649a6.578 6.578 0 0 0 -6.57-6.57h-27.2a3.027 3.027 0 0 1 -2.442-1.212c-.1-.128-1.341-1.4-6.947-7.218a6.549 6.549 0 0 0 -5.161-2.52h-14.1c-3.991 0-6.57 2.2-6.57 5.6.015 49.538-.035 46.755.038 47.346v.02a6.541 6.541 0 0 0 6.529 5.875c59.432 0 55.865.01 56.12-.014a6.471 6.471 0 0 0 5.204-3.113zm5.739-32.183a2.07 2.07 0 0 1 .31 1.861l-8.4 26.838a6.28 6.28 0 0 1 -.662 1.718 3.039 3.039 0 0 1 -2.3 1.372c-.437.034 1.136.007-56.009.016a3.04 3.04 0 0 1 -3.012-2.567c.044-.189-.467 1.48 8.744-27.96a3.047 3.047 0 0 1 2.929-2.14h56.7a2.092 2.092 0 0 1 1.7.862zm-67.06-20.031h14.1a3.03 3.03 0 0 1 2.426 1.2c.1.14.9.943 6.956 7.23a6.585 6.585 0 0 0 5.168 2.52h27.2a3.073 3.073 0 0 1 3.07 3.07v1.649h-50.26a6.532 6.532 0 0 0 -6.264 4.6l-5.466 17.451v-35.62c0-1.736 1.669-2.1 3.07-2.1z"/></g></svg>