<svg height="512" viewBox="0 0 128 128" width="512" xmlns="http://www.w3.org/2000/svg"><g><path d="m64 5.553a58.447 58.447 0 1 0 58.447 58.447 58.513 58.513 0 0 0 -58.447-58.447zm0 113.394a54.947 54.947 0 1 1 54.947-54.947 55.009 55.009 0 0 1 -54.947 54.947z"/><path d="m106.121 56.042a5.558 5.558 0 0 0 -4.524-2.293h-2.937v-1.649a6.578 6.578 0 0 0 -6.57-6.57h-27.2a3.027 3.027 0 0 1 -2.442-1.212c-.1-.128-1.341-1.4-6.947-7.218a6.549 6.549 0 0 0 -5.161-2.52h-14.1c-3.991 0-6.57 2.2-6.57 5.6.015 49.538-.035 46.755.038 47.346v.02a6.541 6.541 0 0 0 6.529 5.875c59.432 0 55.865.01 56.12-.014a6.471 6.471 0 0 0 5.2-3.113 8.74 8.74 0 0 0 1.012-2.519l8.374-26.754a5.532 5.532 0 0 0 -.822-4.979zm-69.881-17.962h14.1a3.03 3.03 0 0 1 2.426 1.2c.1.14.9.943 6.956 7.23a6.585 6.585 0 0 0 5.168 2.52h27.2a3.073 3.073 0 0 1 3.07 3.07v1.649h-50.26a6.532 6.532 0 0 0 -6.264 4.6l-5.466 17.451v-35.62c0-1.736 1.669-2.1 3.07-2.1zm67.368 21.892-8.4 26.838a6.28 6.28 0 0 1 -.662 1.718 3.039 3.039 0 0 1 -2.3 1.372c-.437.034 1.136.007-56.009.016a3.04 3.04 0 0 1 -3.012-2.567c.044-.189-.467 1.48 8.744-27.96a3.047 3.047 0 0 1 2.931-2.14h56.7a2.092 2.092 0 0 1 1.7.862 2.07 2.07 0 0 1 .308 1.861z"/></g></svg>