<svg height="512" viewBox="0 0 128 128" width="512" xmlns="http://www.w3.org/2000/svg"><g><circle cx="64" cy="64" fill="#ebf7fe" r="56.697"/><g><path d="m96.906 52.1v34.754a3.975 3.975 0 0 1 -.029.482v.01l-.3.944a4.84 4.84 0 0 1 -3.834 3.323c-.115.01-.241.029-.366.039-.048 0-.1.009-.144.009a.713.713 0 0 1 -.145.01h-55.851a4.815 4.815 0 0 1 -4.788-4.306 4.473 4.473 0 0 1 -.029-.511v-46.672c0-2.659 2.158-3.853 4.817-3.853h14.1a4.8 4.8 0 0 1 3.834 1.907l6.878 7.138a4.8 4.8 0 0 0 3.834 1.908h27.2a4.819 4.819 0 0 1 4.823 4.818z" fill="#fbbe2c"/><path d="m105.277 60.5-8.4 26.838v.01l-.3.944a4.84 4.84 0 0 1 -3.834 3.323c-.115.01-.241.029-.366.039-.048 0-.1.009-.144.009a2.107 2.107 0 0 1 -.251.01h-55.745a4.815 4.815 0 0 1 -4.788-4.306 3.865 3.865 0 0 1 .154-.7l8.697-27.797a4.81 4.81 0 0 1 4.6-3.37h56.7a3.851 3.851 0 0 1 3.677 5z" fill="#fed843"/></g></g></svg>