<svg height="512" viewBox="0 0 128 128" width="512" xmlns="http://www.w3.org/2000/svg" xmlns:xlink="http://www.w3.org/1999/xlink"><linearGradient id="a" gradientUnits="userSpaceOnUse" x1="105.339" x2="22.702" y1="105.313" y2="22.676"><stop offset="0" stop-color="#5ea6c9"/><stop offset="1" stop-color="#9cdd7e"/></linearGradient><path d="m122.45 64a58.319 58.319 0 0 1 -8.063 29.63 1.75 1.75 0 0 1 -3.014-1.779 54.816 54.816 0 0 0 7.577-27.851 55.594 55.594 0 0 0 -.5-7.445 1.75 1.75 0 1 1 3.469-.469 59.267 59.267 0 0 1 .531 7.914zm-38.767 51.316a54.954 54.954 0 1 1 32.3-69.158 1.75 1.75 0 1 0 3.31-1.136 58.433 58.433 0 1 0 -34.358 73.562 1.75 1.75 0 1 0 -1.254-3.268zm21.4-14.837a54.618 54.618 0 0 1 -11.841 10.049 1.75 1.75 0 1 0 1.862 2.963 58.131 58.131 0 0 0 12.596-10.691 1.75 1.75 0 0 0 -2.621-2.321zm-12.726-7.072c-.255.024 3.312.012-56.12.014a6.541 6.541 0 0 1 -6.529-5.875c0-.007 0-.013 0-.02-.073-.591-.023 2.192-.038-47.346 0-3.4 2.579-5.6 6.57-5.6h14.1a6.549 6.549 0 0 1 5.16 2.52c5.606 5.814 6.851 7.09 6.947 7.218a3.027 3.027 0 0 0 2.443 1.212h27.2a6.578 6.578 0 0 1 6.57 6.57v1.649h2.94a5.6 5.6 0 0 1 5.35 7.272l-8.377 26.754a8.74 8.74 0 0 1 -1.012 2.519 6.471 6.471 0 0 1 -5.204 3.113zm9.24-36.158h-56.697a3.047 3.047 0 0 0 -2.924 2.144c-9.211 29.44-8.7 27.771-8.744 27.96a3.04 3.04 0 0 0 3.008 2.567c57.145-.009 55.572.018 56.009-.016a3.039 3.039 0 0 0 2.3-1.372 6.28 6.28 0 0 0 .662-1.718l8.4-26.838a2.07 2.07 0 0 0 -.31-1.861 2.092 2.092 0 0 0 -1.701-.866zm-68.427-17.069v35.62l5.462-17.45a6.532 6.532 0 0 1 6.264-4.6h50.264v-1.65a3.073 3.073 0 0 0 -3.07-3.07h-27.2a6.585 6.585 0 0 1 -5.168-2.516c-6.061-6.287-6.853-7.09-6.956-7.23a3.03 3.03 0 0 0 -2.426-1.2h-14.1c-1.401-.004-3.07.36-3.07 2.096z" fill="url(#a)"/></svg>