<?xml version="1.0" standalone="no"?>
<!DOCTYPE svg PUBLIC "-//W3C//DTD SVG 20010904//EN"
 "http://www.w3.org/TR/2001/REC-SVG-20010904/DTD/svg10.dtd">
<svg version="1.0" xmlns="http://www.w3.org/2000/svg"
 width="512.000000pt" height="512.000000pt" viewBox="0 0 512.000000 512.000000"
 preserveAspectRatio="xMidYMid meet">

<g transform="translate(0.000000,512.000000) scale(0.100000,-0.100000)"
fill="#000000" stroke="none">
<path d="M2700 4794 c-616 -56 -1169 -350 -1557 -825 -227 -279 -397 -645
-460 -990 l-18 -99 -328 -2 -328 -3 395 -396 396 -396 396 396 395 396 -300 3
c-166 1 -301 6 -301 10 1 30 46 203 76 290 123 366 364 694 679 927 656 486
1559 498 2229 31 638 -446 948 -1234 780 -1985 -39 -172 -78 -281 -160 -446
-190 -383 -476 -669 -859 -859 -197 -98 -333 -143 -555 -183 -137 -24 -457
-24 -604 0 -390 66 -734 237 -1020 507 -47 45 -108 110 -137 145 l-52 64 -96
-74 c-53 -41 -109 -85 -126 -99 l-29 -24 28 -38 c56 -75 292 -302 392 -376
555 -412 1251 -547 1919 -372 767 200 1389 823 1589 1594 57 221 70 327 70
570 0 243 -13 349 -70 570 -162 622 -599 1156 -1179 1440 -308 150 -589 218
-935 224 -102 2 -205 2 -230 0z"/>
<path d="M2560 2945 c0 -472 3 -581 14 -608 8 -18 193 -211 423 -440 l408
-407 113 113 112 112 -375 375 -375 375 0 527 0 528 -160 0 -160 0 0 -575z"/>
</g>
</svg>
