<?xml version="1.0" standalone="no"?>
<!DOCTYPE svg PUBLIC "-//W3C//DTD SVG 20010904//EN"
 "http://www.w3.org/TR/2001/REC-SVG-20010904/DTD/svg10.dtd">
<svg version="1.0" xmlns="http://www.w3.org/2000/svg"
 width="512.000000pt" height="512.000000pt" viewBox="0 0 512.000000 512.000000"
 preserveAspectRatio="xMidYMid meet">

<g transform="translate(0.000000,512.000000) scale(0.100000,-0.100000)"
fill="#000000" stroke="none">
<path d="M105 4545 c-5 -2 -23 -6 -38 -9 -16 -4 -36 -20 -47 -39 -20 -32 -20
-61 -20 -1937 0 -1876 0 -1905 20 -1937 11 -18 32 -36 47 -40 37 -10 4949 -10
4986 0 15 4 36 22 47 40 20 32 20 61 20 1935 0 2067 3 1942 -53 1974 -18 10
-505 13 -2487 15 -1356 1 -2469 0 -2475 -2z m4813 -477 l-3 -273 -2355 0
-2355 0 -3 273 -2 272 2360 0 2360 0 -2 -272z m-3688 -753 l0 -275 -515 0
-515 0 0 268 c0 148 3 272 7 275 3 4 235 7 515 7 l508 0 0 -275z m1230 0 l0
-275 -515 0 -515 0 0 275 0 275 515 0 515 0 0 -275z m1230 0 l0 -275 -515 0
-515 0 0 275 0 275 515 0 515 0 0 -275z m1228 -2 l2 -273 -515 0 -515 0 0 275
0 275 513 -2 512 -3 3 -272z m-3688 -748 l0 -275 -515 0 -515 0 0 268 c0 148
3 272 7 275 3 4 235 7 515 7 l508 0 0 -275z m1228 -2 l2 -273 -515 0 -515 0 0
268 c0 148 3 272 7 275 3 4 234 6 512 5 l506 -3 3 -272z m1230 0 l2 -273 -515
0 -515 0 0 268 c0 148 3 272 7 275 3 4 234 6 512 5 l506 -3 3 -272z m1230 0
l2 -273 -515 0 -515 0 0 275 0 275 513 -2 512 -3 3 -272z m-3688 -758 l0 -275
-512 2 -513 3 -3 273 -2 272 515 0 515 0 0 -275z m1230 0 l0 -275 -515 0 -515
0 0 275 0 275 515 0 515 0 0 -275z m1230 0 l0 -275 -515 0 -515 0 0 275 0 275
515 0 515 0 0 -275z m1228 3 l-3 -273 -512 -3 -513 -2 0 275 0 275 515 0 515
0 -2 -272z m-3688 -753 l0 -275 -515 0 -515 0 0 275 0 275 515 0 515 0 0 -275z
m1230 0 l0 -275 -515 0 -515 0 0 275 0 275 515 0 515 0 0 -275z m1230 0 l0
-275 -515 0 -515 0 0 275 0 275 515 0 515 0 0 -275z m1230 0 l0 -275 -515 0
-515 0 0 275 0 275 515 0 515 0 0 -275z"/>
<path d="M2102 4219 c-70 -21 -91 -114 -37 -168 l25 -26 1021 0 1021 0 29 33
c33 37 38 84 13 121 -37 52 -8 51 -1061 50 -584 0 -991 -5 -1011 -10z"/>
<path d="M4423 4224 c-12 -3 -33 -17 -47 -31 -56 -56 -21 -154 60 -169 59 -11
267 0 291 16 50 33 57 104 14 152 l-29 33 -134 2 c-73 0 -143 -1 -155 -3z"/>
</g>
</svg>
